<mxfile host="app.diagrams.net" modified="2022-09-03T00:50:24.735Z" agent="5.0 (Windows NT 10.0; Win64; x64) AppleWebKit/537.36 (KHTML, like Gecko) Chrome/104.0.5112.102 Safari/537.36" etag="ptY9zrEfgFUjrpI0ijXq" version="20.2.8" type="github">
  <diagram id="SjptLBGm1uJ271l-Bbap" name="Página-1">
    <mxGraphModel dx="868" dy="482" grid="1" gridSize="10" guides="1" tooltips="1" connect="1" arrows="1" fold="1" page="1" pageScale="1" pageWidth="827" pageHeight="1169" math="0" shadow="0">
      <root>
        <mxCell id="0" />
        <mxCell id="1" parent="0" />
        <mxCell id="5yUDu1Yut3HtN82jSTdy-1" value="Cliente" style="rounded=0;whiteSpace=wrap;html=1;" vertex="1" parent="1">
          <mxGeometry x="335" y="60" width="90" height="30" as="geometry" />
        </mxCell>
        <mxCell id="5yUDu1Yut3HtN82jSTdy-2" value="nome" style="ellipse;whiteSpace=wrap;html=1;" vertex="1" parent="1">
          <mxGeometry x="330" y="10" width="40" height="30" as="geometry" />
        </mxCell>
        <mxCell id="5yUDu1Yut3HtN82jSTdy-3" value="cnpj" style="ellipse;whiteSpace=wrap;html=1;" vertex="1" parent="1">
          <mxGeometry x="380" y="10" width="40" height="30" as="geometry" />
        </mxCell>
        <mxCell id="5yUDu1Yut3HtN82jSTdy-5" value="Cidade" style="ellipse;whiteSpace=wrap;html=1;" vertex="1" parent="1">
          <mxGeometry x="520" y="20" width="50" height="30" as="geometry" />
        </mxCell>
        <mxCell id="5yUDu1Yut3HtN82jSTdy-7" value="Endereço" style="rounded=0;whiteSpace=wrap;html=1;" vertex="1" parent="1">
          <mxGeometry x="575" y="60" width="60" height="30" as="geometry" />
        </mxCell>
        <mxCell id="5yUDu1Yut3HtN82jSTdy-8" value="Estado" style="ellipse;whiteSpace=wrap;html=1;" vertex="1" parent="1">
          <mxGeometry x="580" y="20" width="50" height="30" as="geometry" />
        </mxCell>
        <mxCell id="5yUDu1Yut3HtN82jSTdy-9" value="cep" style="ellipse;whiteSpace=wrap;html=1;" vertex="1" parent="1">
          <mxGeometry x="640" y="20" width="50" height="30" as="geometry" />
        </mxCell>
        <mxCell id="5yUDu1Yut3HtN82jSTdy-10" value="telefone" style="ellipse;whiteSpace=wrap;html=1;" vertex="1" parent="1">
          <mxGeometry x="435" y="10" width="45" height="30" as="geometry" />
        </mxCell>
        <mxCell id="5yUDu1Yut3HtN82jSTdy-11" value="complemento" style="ellipse;whiteSpace=wrap;html=1;" vertex="1" parent="1">
          <mxGeometry x="660" y="60" width="80" height="30" as="geometry" />
        </mxCell>
        <mxCell id="5yUDu1Yut3HtN82jSTdy-12" value="pessoa contato" style="ellipse;whiteSpace=wrap;html=1;" vertex="1" parent="1">
          <mxGeometry x="260" y="10" width="55" height="30" as="geometry" />
        </mxCell>
        <mxCell id="5yUDu1Yut3HtN82jSTdy-13" value="pedido" style="rounded=0;whiteSpace=wrap;html=1;" vertex="1" parent="1">
          <mxGeometry x="340" y="165" width="70" height="30" as="geometry" />
        </mxCell>
        <mxCell id="5yUDu1Yut3HtN82jSTdy-14" value="produto" style="rounded=0;whiteSpace=wrap;html=1;" vertex="1" parent="1">
          <mxGeometry x="335" y="310" width="80" height="30" as="geometry" />
        </mxCell>
        <mxCell id="5yUDu1Yut3HtN82jSTdy-15" value="medicamento" style="rounded=0;whiteSpace=wrap;html=1;" vertex="1" parent="1">
          <mxGeometry x="590" y="312.5" width="90" height="30" as="geometry" />
        </mxCell>
        <mxCell id="5yUDu1Yut3HtN82jSTdy-16" value="tipo" style="ellipse;whiteSpace=wrap;html=1;" vertex="1" parent="1">
          <mxGeometry x="560" y="272.5" width="50" height="25" as="geometry" />
        </mxCell>
        <mxCell id="5yUDu1Yut3HtN82jSTdy-18" value="data validade" style="ellipse;whiteSpace=wrap;html=1;" vertex="1" parent="1">
          <mxGeometry x="625" y="267.5" width="55" height="30" as="geometry" />
        </mxCell>
        <mxCell id="5yUDu1Yut3HtN82jSTdy-19" value="nome laboratório" style="ellipse;whiteSpace=wrap;html=1;" vertex="1" parent="1">
          <mxGeometry x="685" y="302.5" width="75" height="30" as="geometry" />
        </mxCell>
        <mxCell id="5yUDu1Yut3HtN82jSTdy-20" value="cor tarja" style="ellipse;whiteSpace=wrap;html=1;" vertex="1" parent="1">
          <mxGeometry x="590" y="352.5" width="55" height="30" as="geometry" />
        </mxCell>
        <mxCell id="5yUDu1Yut3HtN82jSTdy-22" value="principio ativo" style="ellipse;whiteSpace=wrap;html=1;" vertex="1" parent="1">
          <mxGeometry x="660" y="352.5" width="70" height="30" as="geometry" />
        </mxCell>
        <mxCell id="5yUDu1Yut3HtN82jSTdy-23" value="data pedido" style="ellipse;whiteSpace=wrap;html=1;" vertex="1" parent="1">
          <mxGeometry x="425" y="160" width="60" height="40" as="geometry" />
        </mxCell>
        <mxCell id="5yUDu1Yut3HtN82jSTdy-24" value="preço final" style="ellipse;whiteSpace=wrap;html=1;" vertex="1" parent="1">
          <mxGeometry x="275" y="160" width="50" height="40" as="geometry" />
        </mxCell>
        <mxCell id="5yUDu1Yut3HtN82jSTdy-25" value="preço produto" style="ellipse;whiteSpace=wrap;html=1;" vertex="1" parent="1">
          <mxGeometry x="270" y="302.5" width="50" height="40" as="geometry" />
        </mxCell>
        <mxCell id="5yUDu1Yut3HtN82jSTdy-26" value="quantidade" style="ellipse;whiteSpace=wrap;html=1;" vertex="1" parent="1">
          <mxGeometry x="330" y="360" width="60" height="40" as="geometry" />
        </mxCell>
        <mxCell id="5yUDu1Yut3HtN82jSTdy-27" value="identifica" style="rhombus;whiteSpace=wrap;html=1;" vertex="1" parent="1">
          <mxGeometry x="450" y="310" width="80" height="35" as="geometry" />
        </mxCell>
        <mxCell id="5yUDu1Yut3HtN82jSTdy-28" value="" style="endArrow=none;html=1;rounded=0;exitX=1;exitY=0.5;exitDx=0;exitDy=0;entryX=0;entryY=0.5;entryDx=0;entryDy=0;" edge="1" parent="1" source="5yUDu1Yut3HtN82jSTdy-14" target="5yUDu1Yut3HtN82jSTdy-27">
          <mxGeometry width="50" height="50" relative="1" as="geometry">
            <mxPoint x="390" y="230" as="sourcePoint" />
            <mxPoint x="440" y="180" as="targetPoint" />
          </mxGeometry>
        </mxCell>
        <mxCell id="5yUDu1Yut3HtN82jSTdy-29" value="" style="endArrow=none;html=1;rounded=0;entryX=1;entryY=0.5;entryDx=0;entryDy=0;exitX=0;exitY=0.5;exitDx=0;exitDy=0;" edge="1" parent="1" source="5yUDu1Yut3HtN82jSTdy-15" target="5yUDu1Yut3HtN82jSTdy-27">
          <mxGeometry width="50" height="50" relative="1" as="geometry">
            <mxPoint x="390" y="230" as="sourcePoint" />
            <mxPoint x="440" y="180" as="targetPoint" />
          </mxGeometry>
        </mxCell>
        <mxCell id="5yUDu1Yut3HtN82jSTdy-30" value="1" style="text;html=1;align=center;verticalAlign=middle;resizable=0;points=[];autosize=1;strokeColor=none;fillColor=none;" vertex="1" parent="1">
          <mxGeometry x="415" y="305" width="30" height="30" as="geometry" />
        </mxCell>
        <mxCell id="5yUDu1Yut3HtN82jSTdy-31" value="1" style="text;html=1;align=center;verticalAlign=middle;resizable=0;points=[];autosize=1;strokeColor=none;fillColor=none;" vertex="1" parent="1">
          <mxGeometry x="565" y="305" width="30" height="30" as="geometry" />
        </mxCell>
        <mxCell id="5yUDu1Yut3HtN82jSTdy-32" value="contem" style="rhombus;whiteSpace=wrap;html=1;" vertex="1" parent="1">
          <mxGeometry x="335" y="242.5" width="80" height="30" as="geometry" />
        </mxCell>
        <mxCell id="5yUDu1Yut3HtN82jSTdy-33" value="" style="endArrow=none;html=1;rounded=0;exitX=0.5;exitY=0;exitDx=0;exitDy=0;entryX=0.5;entryY=1;entryDx=0;entryDy=0;" edge="1" parent="1" source="5yUDu1Yut3HtN82jSTdy-32" target="5yUDu1Yut3HtN82jSTdy-13">
          <mxGeometry width="50" height="50" relative="1" as="geometry">
            <mxPoint x="390" y="230" as="sourcePoint" />
            <mxPoint x="440" y="180" as="targetPoint" />
          </mxGeometry>
        </mxCell>
        <mxCell id="5yUDu1Yut3HtN82jSTdy-34" value="" style="endArrow=none;html=1;rounded=0;exitX=0.5;exitY=0;exitDx=0;exitDy=0;entryX=0.5;entryY=1;entryDx=0;entryDy=0;" edge="1" parent="1" source="5yUDu1Yut3HtN82jSTdy-14" target="5yUDu1Yut3HtN82jSTdy-32">
          <mxGeometry width="50" height="50" relative="1" as="geometry">
            <mxPoint x="390" y="230" as="sourcePoint" />
            <mxPoint x="440" y="180" as="targetPoint" />
          </mxGeometry>
        </mxCell>
        <mxCell id="5yUDu1Yut3HtN82jSTdy-35" value="1" style="text;html=1;align=center;verticalAlign=middle;resizable=0;points=[];autosize=1;strokeColor=none;fillColor=none;" vertex="1" parent="1">
          <mxGeometry x="375" y="195" width="30" height="30" as="geometry" />
        </mxCell>
        <mxCell id="5yUDu1Yut3HtN82jSTdy-36" value="N" style="text;html=1;align=center;verticalAlign=middle;resizable=0;points=[];autosize=1;strokeColor=none;fillColor=none;" vertex="1" parent="1">
          <mxGeometry x="375" y="285" width="30" height="30" as="geometry" />
        </mxCell>
      </root>
    </mxGraphModel>
  </diagram>
</mxfile>
